<mxfile host="app.diagrams.net" modified="2023-11-11T16:41:53.680Z" agent="Mozilla/5.0 (X11; Linux x86_64) AppleWebKit/537.36 (KHTML, like Gecko) Chrome/119.0.0.0 Safari/537.36" etag="VrlQX0TeM94td-T3GW5f" version="22.1.0" type="device">
  <diagram name="PÃ¡gina-1" id="H38OuKA2RXyypb7pAMRz">
    <mxGraphModel dx="577" dy="542" grid="1" gridSize="10" guides="1" tooltips="1" connect="1" arrows="1" fold="1" page="1" pageScale="1" pageWidth="827" pageHeight="1169" math="0" shadow="0">
      <root>
        <mxCell id="0" />
        <mxCell id="1" parent="0" />
        <mxCell id="M1ZITqPxI_tHhmD_oT9W-1" value="" style="ellipse;html=1;shape=startState;fillColor=#000000;strokeColor=#ff0000;" vertex="1" parent="1">
          <mxGeometry x="80" y="230" width="30" height="30" as="geometry" />
        </mxCell>
        <mxCell id="M1ZITqPxI_tHhmD_oT9W-2" value="" style="edgeStyle=orthogonalEdgeStyle;html=1;verticalAlign=bottom;endArrow=open;endSize=8;strokeColor=#000000;rounded=0;" edge="1" source="M1ZITqPxI_tHhmD_oT9W-1" parent="1">
          <mxGeometry relative="1" as="geometry">
            <mxPoint x="180" y="245" as="targetPoint" />
          </mxGeometry>
        </mxCell>
        <mxCell id="M1ZITqPxI_tHhmD_oT9W-15" style="edgeStyle=orthogonalEdgeStyle;rounded=0;orthogonalLoop=1;jettySize=auto;html=1;entryX=0;entryY=0.5;entryDx=0;entryDy=0;" edge="1" parent="1" source="M1ZITqPxI_tHhmD_oT9W-6" target="M1ZITqPxI_tHhmD_oT9W-13">
          <mxGeometry relative="1" as="geometry" />
        </mxCell>
        <mxCell id="M1ZITqPxI_tHhmD_oT9W-46" style="edgeStyle=orthogonalEdgeStyle;rounded=0;orthogonalLoop=1;jettySize=auto;html=1;entryX=0.5;entryY=0;entryDx=0;entryDy=0;" edge="1" parent="1" source="M1ZITqPxI_tHhmD_oT9W-6" target="M1ZITqPxI_tHhmD_oT9W-18">
          <mxGeometry relative="1" as="geometry" />
        </mxCell>
        <mxCell id="M1ZITqPxI_tHhmD_oT9W-6" value="Aberto" style="rounded=1;whiteSpace=wrap;html=1;arcSize=40;fontColor=#000000;fillColor=#ffffc0;strokeColor=#ff0000;" vertex="1" parent="1">
          <mxGeometry x="180" y="230" width="120" height="40" as="geometry" />
        </mxCell>
        <mxCell id="M1ZITqPxI_tHhmD_oT9W-8" style="edgeStyle=orthogonalEdgeStyle;rounded=0;orthogonalLoop=1;jettySize=auto;html=1;entryX=0.5;entryY=0;entryDx=0;entryDy=0;" edge="1" parent="1" source="M1ZITqPxI_tHhmD_oT9W-6" target="M1ZITqPxI_tHhmD_oT9W-6">
          <mxGeometry relative="1" as="geometry">
            <Array as="points">
              <mxPoint x="210" y="180" />
              <mxPoint x="240" y="180" />
            </Array>
          </mxGeometry>
        </mxCell>
        <mxCell id="M1ZITqPxI_tHhmD_oT9W-9" value="adicionarItem()" style="edgeLabel;html=1;align=center;verticalAlign=middle;resizable=0;points=[];" vertex="1" connectable="0" parent="M1ZITqPxI_tHhmD_oT9W-8">
          <mxGeometry x="-0.1101" y="1" relative="1" as="geometry">
            <mxPoint x="10" y="-9" as="offset" />
          </mxGeometry>
        </mxCell>
        <mxCell id="M1ZITqPxI_tHhmD_oT9W-31" style="edgeStyle=orthogonalEdgeStyle;rounded=0;orthogonalLoop=1;jettySize=auto;html=1;entryX=0;entryY=0.5;entryDx=0;entryDy=0;" edge="1" parent="1" source="M1ZITqPxI_tHhmD_oT9W-13" target="M1ZITqPxI_tHhmD_oT9W-30">
          <mxGeometry relative="1" as="geometry" />
        </mxCell>
        <mxCell id="M1ZITqPxI_tHhmD_oT9W-35" style="edgeStyle=orthogonalEdgeStyle;rounded=0;orthogonalLoop=1;jettySize=auto;html=1;entryX=0;entryY=0.75;entryDx=0;entryDy=0;" edge="1" parent="1" source="M1ZITqPxI_tHhmD_oT9W-13" target="M1ZITqPxI_tHhmD_oT9W-34">
          <mxGeometry relative="1" as="geometry">
            <Array as="points">
              <mxPoint x="480" y="390" />
            </Array>
          </mxGeometry>
        </mxCell>
        <mxCell id="M1ZITqPxI_tHhmD_oT9W-69" style="edgeStyle=orthogonalEdgeStyle;rounded=0;orthogonalLoop=1;jettySize=auto;html=1;entryX=1;entryY=0.5;entryDx=0;entryDy=0;" edge="1" parent="1" source="M1ZITqPxI_tHhmD_oT9W-13" target="M1ZITqPxI_tHhmD_oT9W-18">
          <mxGeometry relative="1" as="geometry">
            <Array as="points">
              <mxPoint x="440" y="380" />
            </Array>
          </mxGeometry>
        </mxCell>
        <mxCell id="M1ZITqPxI_tHhmD_oT9W-70" value="cancelar()" style="edgeLabel;html=1;align=center;verticalAlign=middle;resizable=0;points=[];" vertex="1" connectable="0" parent="M1ZITqPxI_tHhmD_oT9W-69">
          <mxGeometry x="0.4959" y="-1" relative="1" as="geometry">
            <mxPoint as="offset" />
          </mxGeometry>
        </mxCell>
        <mxCell id="M1ZITqPxI_tHhmD_oT9W-13" value="Fechado" style="rounded=1;whiteSpace=wrap;html=1;arcSize=40;fontColor=#000000;fillColor=#ffffc0;strokeColor=#ff0000;" vertex="1" parent="1">
          <mxGeometry x="410" y="230" width="120" height="40" as="geometry" />
        </mxCell>
        <mxCell id="M1ZITqPxI_tHhmD_oT9W-16" value="fechar()" style="text;html=1;align=center;verticalAlign=middle;resizable=0;points=[];autosize=1;strokeColor=none;fillColor=none;" vertex="1" parent="1">
          <mxGeometry x="320" y="230" width="60" height="30" as="geometry" />
        </mxCell>
        <mxCell id="M1ZITqPxI_tHhmD_oT9W-17" value="[totalItems &amp;gt; 0]" style="text;html=1;align=center;verticalAlign=middle;resizable=0;points=[];autosize=1;strokeColor=none;fillColor=none;" vertex="1" parent="1">
          <mxGeometry x="300" y="250" width="100" height="30" as="geometry" />
        </mxCell>
        <mxCell id="M1ZITqPxI_tHhmD_oT9W-24" style="edgeStyle=orthogonalEdgeStyle;rounded=0;orthogonalLoop=1;jettySize=auto;html=1;entryX=0.5;entryY=0;entryDx=0;entryDy=0;" edge="1" parent="1" source="M1ZITqPxI_tHhmD_oT9W-18" target="M1ZITqPxI_tHhmD_oT9W-23">
          <mxGeometry relative="1" as="geometry" />
        </mxCell>
        <mxCell id="M1ZITqPxI_tHhmD_oT9W-18" value="Cancelado" style="rounded=1;whiteSpace=wrap;html=1;arcSize=40;fontColor=#000000;fillColor=#ffffc0;strokeColor=#ff0000;" vertex="1" parent="1">
          <mxGeometry x="180" y="360" width="120" height="40" as="geometry" />
        </mxCell>
        <mxCell id="M1ZITqPxI_tHhmD_oT9W-21" value="cancelar()" style="edgeLabel;html=1;align=center;verticalAlign=middle;resizable=0;points=[];" vertex="1" connectable="0" parent="1">
          <mxGeometry x="239.9955172413794" y="320.0000000000001" as="geometry">
            <mxPoint x="-6" y="-4" as="offset" />
          </mxGeometry>
        </mxCell>
        <mxCell id="M1ZITqPxI_tHhmD_oT9W-23" value="" style="ellipse;html=1;shape=endState;fillColor=#000000;strokeColor=#ff0000;" vertex="1" parent="1">
          <mxGeometry x="225" y="470" width="30" height="30" as="geometry" />
        </mxCell>
        <mxCell id="M1ZITqPxI_tHhmD_oT9W-25" style="edgeStyle=orthogonalEdgeStyle;rounded=0;orthogonalLoop=1;jettySize=auto;html=1;entryX=0.703;entryY=-0.024;entryDx=0;entryDy=0;entryPerimeter=0;" edge="1" parent="1" source="M1ZITqPxI_tHhmD_oT9W-13" target="M1ZITqPxI_tHhmD_oT9W-6">
          <mxGeometry relative="1" as="geometry">
            <Array as="points">
              <mxPoint x="440" y="190" />
              <mxPoint x="264" y="190" />
            </Array>
          </mxGeometry>
        </mxCell>
        <mxCell id="M1ZITqPxI_tHhmD_oT9W-71" value="editar()" style="edgeLabel;html=1;align=center;verticalAlign=middle;resizable=0;points=[];" vertex="1" connectable="0" parent="M1ZITqPxI_tHhmD_oT9W-25">
          <mxGeometry x="0.065" y="-2" relative="1" as="geometry">
            <mxPoint as="offset" />
          </mxGeometry>
        </mxCell>
        <mxCell id="M1ZITqPxI_tHhmD_oT9W-57" style="edgeStyle=orthogonalEdgeStyle;rounded=0;orthogonalLoop=1;jettySize=auto;html=1;entryX=1;entryY=0.5;entryDx=0;entryDy=0;" edge="1" parent="1" source="M1ZITqPxI_tHhmD_oT9W-30" target="M1ZITqPxI_tHhmD_oT9W-53">
          <mxGeometry relative="1" as="geometry">
            <Array as="points">
              <mxPoint x="700" y="200" />
              <mxPoint x="930" y="200" />
              <mxPoint x="930" y="660" />
            </Array>
          </mxGeometry>
        </mxCell>
        <mxCell id="M1ZITqPxI_tHhmD_oT9W-58" value="entregar()" style="edgeLabel;html=1;align=center;verticalAlign=middle;resizable=0;points=[];" vertex="1" connectable="0" parent="M1ZITqPxI_tHhmD_oT9W-57">
          <mxGeometry x="0.1427" y="1" relative="1" as="geometry">
            <mxPoint as="offset" />
          </mxGeometry>
        </mxCell>
        <mxCell id="M1ZITqPxI_tHhmD_oT9W-59" value="[pago em dinheiro]" style="edgeLabel;html=1;align=center;verticalAlign=middle;resizable=0;points=[];" vertex="1" connectable="0" parent="M1ZITqPxI_tHhmD_oT9W-57">
          <mxGeometry x="0.2791" y="3" relative="1" as="geometry">
            <mxPoint y="-43" as="offset" />
          </mxGeometry>
        </mxCell>
        <mxCell id="M1ZITqPxI_tHhmD_oT9W-30" value="Pago" style="rounded=1;whiteSpace=wrap;html=1;arcSize=40;fontColor=#000000;fillColor=#ffffc0;strokeColor=#ff0000;" vertex="1" parent="1">
          <mxGeometry x="640" y="230" width="120" height="40" as="geometry" />
        </mxCell>
        <mxCell id="M1ZITqPxI_tHhmD_oT9W-32" value="pagar()" style="text;html=1;align=center;verticalAlign=middle;resizable=0;points=[];autosize=1;strokeColor=none;fillColor=none;" vertex="1" parent="1">
          <mxGeometry x="550" y="220" width="60" height="30" as="geometry" />
        </mxCell>
        <mxCell id="M1ZITqPxI_tHhmD_oT9W-33" value="[outros meios de&lt;br&gt;pagamento]" style="text;html=1;align=center;verticalAlign=middle;resizable=0;points=[];autosize=1;strokeColor=none;fillColor=none;" vertex="1" parent="1">
          <mxGeometry x="525" y="250" width="110" height="40" as="geometry" />
        </mxCell>
        <mxCell id="M1ZITqPxI_tHhmD_oT9W-41" style="edgeStyle=orthogonalEdgeStyle;rounded=0;orthogonalLoop=1;jettySize=auto;html=1;entryX=0.5;entryY=0;entryDx=0;entryDy=0;" edge="1" parent="1" source="M1ZITqPxI_tHhmD_oT9W-34" target="M1ZITqPxI_tHhmD_oT9W-40">
          <mxGeometry relative="1" as="geometry" />
        </mxCell>
        <mxCell id="M1ZITqPxI_tHhmD_oT9W-73" value="rastrear()" style="edgeLabel;html=1;align=center;verticalAlign=middle;resizable=0;points=[];" vertex="1" connectable="0" parent="M1ZITqPxI_tHhmD_oT9W-41">
          <mxGeometry x="-0.3216" y="1" relative="1" as="geometry">
            <mxPoint as="offset" />
          </mxGeometry>
        </mxCell>
        <mxCell id="M1ZITqPxI_tHhmD_oT9W-34" value="Em Preparo" style="rounded=1;whiteSpace=wrap;html=1;arcSize=40;fontColor=#000000;fillColor=#ffffc0;strokeColor=#ff0000;" vertex="1" parent="1">
          <mxGeometry x="650" y="360" width="120" height="40" as="geometry" />
        </mxCell>
        <mxCell id="M1ZITqPxI_tHhmD_oT9W-36" value="preparar()" style="text;html=1;align=center;verticalAlign=middle;resizable=0;points=[];autosize=1;strokeColor=none;fillColor=none;" vertex="1" parent="1">
          <mxGeometry x="515" y="360" width="80" height="30" as="geometry" />
        </mxCell>
        <mxCell id="M1ZITqPxI_tHhmD_oT9W-37" value="[pagamento em dinheiro]" style="text;html=1;align=center;verticalAlign=middle;resizable=0;points=[];autosize=1;strokeColor=none;fillColor=none;" vertex="1" parent="1">
          <mxGeometry x="480" y="390" width="160" height="30" as="geometry" />
        </mxCell>
        <mxCell id="M1ZITqPxI_tHhmD_oT9W-38" style="edgeStyle=orthogonalEdgeStyle;rounded=0;orthogonalLoop=1;jettySize=auto;html=1;entryX=0.417;entryY=0;entryDx=0;entryDy=0;entryPerimeter=0;" edge="1" parent="1" source="M1ZITqPxI_tHhmD_oT9W-30" target="M1ZITqPxI_tHhmD_oT9W-34">
          <mxGeometry relative="1" as="geometry" />
        </mxCell>
        <mxCell id="M1ZITqPxI_tHhmD_oT9W-72" value="preparar()" style="edgeLabel;html=1;align=center;verticalAlign=middle;resizable=0;points=[];" vertex="1" connectable="0" parent="M1ZITqPxI_tHhmD_oT9W-38">
          <mxGeometry x="-0.2398" relative="1" as="geometry">
            <mxPoint as="offset" />
          </mxGeometry>
        </mxCell>
        <mxCell id="M1ZITqPxI_tHhmD_oT9W-49" style="edgeStyle=orthogonalEdgeStyle;rounded=0;orthogonalLoop=1;jettySize=auto;html=1;entryX=1;entryY=0.5;entryDx=0;entryDy=0;" edge="1" parent="1" source="M1ZITqPxI_tHhmD_oT9W-40" target="M1ZITqPxI_tHhmD_oT9W-30">
          <mxGeometry relative="1" as="geometry">
            <Array as="points">
              <mxPoint x="810" y="530" />
              <mxPoint x="810" y="250" />
            </Array>
          </mxGeometry>
        </mxCell>
        <mxCell id="M1ZITqPxI_tHhmD_oT9W-51" value="pagar()" style="edgeLabel;html=1;align=center;verticalAlign=middle;resizable=0;points=[];" vertex="1" connectable="0" parent="M1ZITqPxI_tHhmD_oT9W-49">
          <mxGeometry x="0.0975" y="-2" relative="1" as="geometry">
            <mxPoint as="offset" />
          </mxGeometry>
        </mxCell>
        <mxCell id="M1ZITqPxI_tHhmD_oT9W-52" value="[pagamento em dinheiro]" style="edgeLabel;html=1;align=center;verticalAlign=middle;resizable=0;points=[];" vertex="1" connectable="0" parent="M1ZITqPxI_tHhmD_oT9W-49">
          <mxGeometry x="0.0229" y="1" relative="1" as="geometry">
            <mxPoint x="31" y="9" as="offset" />
          </mxGeometry>
        </mxCell>
        <mxCell id="M1ZITqPxI_tHhmD_oT9W-55" style="edgeStyle=orthogonalEdgeStyle;rounded=0;orthogonalLoop=1;jettySize=auto;html=1;entryX=0.5;entryY=0;entryDx=0;entryDy=0;" edge="1" parent="1" source="M1ZITqPxI_tHhmD_oT9W-40" target="M1ZITqPxI_tHhmD_oT9W-53">
          <mxGeometry relative="1" as="geometry" />
        </mxCell>
        <mxCell id="M1ZITqPxI_tHhmD_oT9W-56" value="entregar()" style="edgeLabel;html=1;align=center;verticalAlign=middle;resizable=0;points=[];" vertex="1" connectable="0" parent="M1ZITqPxI_tHhmD_oT9W-55">
          <mxGeometry x="-0.4084" y="-1" relative="1" as="geometry">
            <mxPoint as="offset" />
          </mxGeometry>
        </mxCell>
        <mxCell id="M1ZITqPxI_tHhmD_oT9W-40" value="Enviado" style="rounded=1;whiteSpace=wrap;html=1;arcSize=40;fontColor=#000000;fillColor=#ffffc0;strokeColor=#ff0000;" vertex="1" parent="1">
          <mxGeometry x="650" y="510" width="120" height="40" as="geometry" />
        </mxCell>
        <mxCell id="M1ZITqPxI_tHhmD_oT9W-43" style="edgeStyle=orthogonalEdgeStyle;rounded=0;orthogonalLoop=1;jettySize=auto;html=1;entryX=-0.03;entryY=0.39;entryDx=0;entryDy=0;entryPerimeter=0;" edge="1" parent="1" source="M1ZITqPxI_tHhmD_oT9W-40" target="M1ZITqPxI_tHhmD_oT9W-40">
          <mxGeometry relative="1" as="geometry">
            <Array as="points">
              <mxPoint x="680" y="460" />
              <mxPoint x="630" y="460" />
              <mxPoint x="630" y="526" />
            </Array>
          </mxGeometry>
        </mxCell>
        <mxCell id="M1ZITqPxI_tHhmD_oT9W-44" value="rastrear()" style="text;html=1;align=center;verticalAlign=middle;resizable=0;points=[];autosize=1;strokeColor=none;fillColor=none;" vertex="1" parent="1">
          <mxGeometry x="510" y="470" width="70" height="30" as="geometry" />
        </mxCell>
        <mxCell id="M1ZITqPxI_tHhmD_oT9W-45" value="removerItem()" style="edgeLabel;html=1;align=center;verticalAlign=middle;resizable=0;points=[];" vertex="1" connectable="0" parent="1">
          <mxGeometry x="229.9955172413794" y="160.0000000000001" as="geometry">
            <mxPoint x="-6" y="-4" as="offset" />
          </mxGeometry>
        </mxCell>
        <mxCell id="M1ZITqPxI_tHhmD_oT9W-48" value="tempoDeEntrega()" style="text;html=1;align=center;verticalAlign=middle;resizable=0;points=[];autosize=1;strokeColor=none;fillColor=none;" vertex="1" parent="1">
          <mxGeometry x="510" y="490" width="120" height="30" as="geometry" />
        </mxCell>
        <mxCell id="M1ZITqPxI_tHhmD_oT9W-62" style="rounded=0;orthogonalLoop=1;jettySize=auto;html=1;entryX=1;entryY=0.5;entryDx=0;entryDy=0;" edge="1" parent="1" source="M1ZITqPxI_tHhmD_oT9W-53" target="M1ZITqPxI_tHhmD_oT9W-61">
          <mxGeometry relative="1" as="geometry" />
        </mxCell>
        <mxCell id="M1ZITqPxI_tHhmD_oT9W-63" value="avaliar()" style="edgeLabel;html=1;align=center;verticalAlign=middle;resizable=0;points=[];" vertex="1" connectable="0" parent="M1ZITqPxI_tHhmD_oT9W-62">
          <mxGeometry x="0.2073" y="-1" relative="1" as="geometry">
            <mxPoint as="offset" />
          </mxGeometry>
        </mxCell>
        <mxCell id="M1ZITqPxI_tHhmD_oT9W-64" style="rounded=0;orthogonalLoop=1;jettySize=auto;html=1;entryX=1;entryY=0.5;entryDx=0;entryDy=0;" edge="1" parent="1" source="M1ZITqPxI_tHhmD_oT9W-53" target="M1ZITqPxI_tHhmD_oT9W-60">
          <mxGeometry relative="1" as="geometry" />
        </mxCell>
        <mxCell id="M1ZITqPxI_tHhmD_oT9W-65" value="finalizar()" style="edgeLabel;html=1;align=center;verticalAlign=middle;resizable=0;points=[];" vertex="1" connectable="0" parent="M1ZITqPxI_tHhmD_oT9W-64">
          <mxGeometry x="0.1308" y="1" relative="1" as="geometry">
            <mxPoint as="offset" />
          </mxGeometry>
        </mxCell>
        <mxCell id="M1ZITqPxI_tHhmD_oT9W-53" value="Entregue" style="rounded=1;whiteSpace=wrap;html=1;arcSize=40;fontColor=#000000;fillColor=#ffffc0;strokeColor=#ff0000;" vertex="1" parent="1">
          <mxGeometry x="650" y="640" width="120" height="40" as="geometry" />
        </mxCell>
        <mxCell id="M1ZITqPxI_tHhmD_oT9W-60" value="FInalizado" style="rounded=1;whiteSpace=wrap;html=1;arcSize=40;fontColor=#000000;fillColor=#ffffc0;strokeColor=#ff0000;" vertex="1" parent="1">
          <mxGeometry x="414" y="720" width="120" height="40" as="geometry" />
        </mxCell>
        <mxCell id="M1ZITqPxI_tHhmD_oT9W-66" style="edgeStyle=orthogonalEdgeStyle;rounded=0;orthogonalLoop=1;jettySize=auto;html=1;entryX=0.5;entryY=0;entryDx=0;entryDy=0;" edge="1" parent="1" source="M1ZITqPxI_tHhmD_oT9W-61" target="M1ZITqPxI_tHhmD_oT9W-60">
          <mxGeometry relative="1" as="geometry" />
        </mxCell>
        <mxCell id="M1ZITqPxI_tHhmD_oT9W-67" value="finalizar()" style="edgeLabel;html=1;align=center;verticalAlign=middle;resizable=0;points=[];" vertex="1" connectable="0" parent="M1ZITqPxI_tHhmD_oT9W-66">
          <mxGeometry x="-0.2398" y="-1" relative="1" as="geometry">
            <mxPoint as="offset" />
          </mxGeometry>
        </mxCell>
        <mxCell id="M1ZITqPxI_tHhmD_oT9W-61" value="Avaliado" style="rounded=1;whiteSpace=wrap;html=1;arcSize=40;fontColor=#000000;fillColor=#ffffc0;strokeColor=#ff0000;" vertex="1" parent="1">
          <mxGeometry x="414" y="590" width="120" height="40" as="geometry" />
        </mxCell>
        <mxCell id="M1ZITqPxI_tHhmD_oT9W-68" style="edgeStyle=orthogonalEdgeStyle;rounded=0;orthogonalLoop=1;jettySize=auto;html=1;entryX=0.5;entryY=1;entryDx=0;entryDy=0;" edge="1" parent="1" source="M1ZITqPxI_tHhmD_oT9W-60" target="M1ZITqPxI_tHhmD_oT9W-23">
          <mxGeometry relative="1" as="geometry" />
        </mxCell>
      </root>
    </mxGraphModel>
  </diagram>
</mxfile>
